<!DOCTYPE svg PUBLIC "-//W3C//DTD SVG 1.1//EN" "http://www.w3.org/Graphics/SVG/1.1/DTD/svg11.dtd">
<!-- Uploaded to: SVG Repo, www.svgrepo.com, Transformed by: SVG Repo Mixer Tools -->
<svg fill="#f6d32d" width="256px" height="256px" viewBox="0 0 512 512" version="1.1" xml:space="preserve" xmlns="http://www.w3.org/2000/svg" xmlns:xlink="http://www.w3.org/1999/xlink">
<g id="SVGRepo_bgCarrier" stroke-width="0"/>
<g id="SVGRepo_tracerCarrier" stroke-linecap="round" stroke-linejoin="round"/>
<g id="SVGRepo_iconCarrier"> <g id="_x35_23_x2C__Automation_x2C__industry_x2C__machine_x2C__production_x2C__robotics"> <g> <path d="M316.068,294.695H160.44v34.427h21.871h0.102h111.683h0.137h21.836V294.695 z M289.943,337.426H186.564v21.837h12.217h0.102h78.742h0.103h12.216V337.426z M377.021,266.514c2.264,0,4.152,1.856,4.152,4.152 c0,2.26-1.889,4.15-4.152,4.15h-21.566v11.576h27.172l27.338-54.002V113.89l-41.783-81.509h-12.727V81.86h21.566 c2.264,0,4.152,1.855,4.152,4.151c0,2.262-1.889,4.117-4.152,4.117h-21.566v14.783h21.566c2.264,0,4.152,1.891,4.152,4.151 c0,2.295-1.889,4.151-4.152,4.151h-21.566v14.783h21.566c2.264,0,4.152,1.856,4.152,4.152c0,2.295-1.889,4.15-4.152,4.15h-21.566 v14.783h21.566c2.264,0,4.152,1.855,4.152,4.151c0,2.295-1.889,4.151-4.152,4.151h-21.566v14.783h21.566 c2.264,0,4.152,1.856,4.152,4.152c0,2.295-1.889,4.15-4.152,4.15h-21.566v14.783h21.566c2.264,0,4.152,1.855,4.152,4.151 c0,2.295-1.889,4.151-4.152,4.151h-21.566v14.783h21.566c2.264,0,4.152,1.856,4.152,4.152c0,2.295-1.889,4.15-4.152,4.15h-21.566 v14.783h21.566c2.264,0,4.152,1.855,4.152,4.151c0,2.295-1.889,4.151-4.152,4.151h-21.566v14.783H377.021z M121.053,274.816 H99.487c-2.264,0-4.152-1.891-4.152-4.15c0-2.296,1.888-4.152,4.152-4.152h21.566v-7.594v-0.135v-0.102v-6.953H99.487 c-2.264,0-4.152-1.856-4.152-4.151c0-2.296,1.888-4.151,4.152-4.151h21.566v-14.783H99.487c-2.264,0-4.152-1.855-4.152-4.15 c0-2.296,1.888-4.152,4.152-4.152h21.566v-14.783H99.487c-2.264,0-4.152-1.856-4.152-4.151c0-2.296,1.888-4.151,4.152-4.151 h21.566v-14.783H99.487c-2.264,0-4.152-1.855-4.152-4.15c0-2.296,1.888-4.152,4.152-4.152h21.566v-14.783H99.487 c-2.264,0-4.152-1.856-4.152-4.151c0-2.296,1.888-4.151,4.152-4.151h21.566v-14.783H99.487c-2.264,0-4.152-1.855-4.152-4.15 c0-2.296,1.888-4.152,4.152-4.152h21.566v-14.783H99.487c-2.264,0-4.152-1.856-4.152-4.151c0-2.261,1.888-4.151,4.152-4.151 h21.566V90.129H99.487c-2.264,0-4.152-1.855-4.152-4.117c0-2.296,1.888-4.151,4.152-4.151h21.566V32.381h-12.726L66.543,113.89 v118.501l27.339,54.002h27.17V274.816z M243.808,472.195c-2.295,0-4.152-1.857-4.152-4.152c0-2.261,1.856-4.117,4.152-4.117 h29.666v-8.202h-29.666c-2.295,0-4.152-1.856-4.152-4.151s1.856-4.151,4.152-4.151h29.666v-8.201h-29.666 c-2.295,0-4.152-1.856-4.152-4.151c0-2.262,1.856-4.118,4.152-4.118h29.666v-8.201h-29.666c-2.295,0-4.152-1.856-4.152-4.152 c0-2.294,1.856-4.15,4.152-4.15h29.666v-8.202h-29.666c-2.295,0-4.152-1.856-4.152-4.151c0-2.296,1.856-4.151,4.152-4.151h29.666 v-8.168h-29.666c-2.295,0-4.152-1.855-4.152-4.15c0-2.296,1.856-4.152,4.152-4.152h29.666v-13.905h-70.439v118.434h70.439v-13.804 H243.808z M287.954,254.633c2.295,0,4.151,1.891,4.151,4.152c0,2.295-1.856,4.15-4.151,4.15H129.356v7.595v0.136v0.1v15.627 h26.834h0.098h163.933h0.102h26.83v-15.627v-0.1v-0.136v-22.85v-0.102v-0.101v-15.83H129.356v15.83v0.101v0.102v6.952H287.954z M260.31,96.035c-4.724-4.725-10.967-7.932-17.919-8.842v30.881c0,2.296-1.856,4.152-4.12,4.152c-2.295,0-4.148-1.856-4.148-4.152 V87.193c-6.956,0.91-13.199,4.117-17.923,8.842c-5.636,5.637-9.114,13.434-9.114,22.039c0,8.607,3.478,16.404,9.114,22.074 c5.636,5.637,13.431,9.113,22.071,9.113c8.609,0,16.403-3.477,22.04-9.113c5.636-5.67,9.114-13.467,9.114-22.074 C269.424,109.469,265.945,101.672,260.31,96.035z M238.474,78.62c10.802,0.067,20.59,4.456,27.711,11.543 c7.12,7.155,11.543,17.011,11.543,27.911c0,10.902-4.423,20.792-11.543,27.914c-7.156,7.154-17.045,11.576-27.915,11.576 c-10.9,0-20.791-4.422-27.911-11.576c-7.156-7.122-11.578-17.012-11.578-27.914c0-10.9,4.422-20.756,11.578-27.911 c7.089-7.087,16.877-11.476,27.676-11.543h0.102h0.133h0.102H238.474z M437.642,240.323c1.046-2.06,3.544-2.836,5.569-1.789 c2.024,1.046,2.836,3.544,1.786,5.568l-37.699,73.005c-0.744,1.417-2.193,2.261-3.678,2.261h-56.163v30.241 c0,2.295-1.855,4.151-4.116,4.151H308c-2.295,0-4.148-1.856-4.148-4.151s1.854-4.151,4.148-4.151h31.189v-30.241 c0-2.295,1.856-4.15,4.151-4.15h57.749L437.642,240.323z M186.631,460.82c0,2.295-1.888,4.151-4.152,4.151 c-2.295,0-4.152-1.856-4.152-4.151v-72.633h-30.711c-2.295,0-4.152-1.855-4.152-4.151c0-2.295,1.856-4.151,4.152-4.151h34.863 c2.264,0,4.152,1.856,4.152,4.151V460.82z M146.198,118.074v3.343l26.055,3.915l0.474,3.037c0.337,2.262,0.842,4.557,1.449,6.886 c0.643,2.329,1.352,4.591,2.197,6.716l1.077,2.836l-20.622,16.438l3.341,5.771l24.574-9.653l1.888,2.363 c1.417,1.755,3.004,3.51,4.727,5.266c1.755,1.721,3.475,3.273,5.264,4.725l2.362,1.891l-9.651,24.57l5.77,3.342l16.438-20.622 l2.833,1.08c2.126,0.81,4.355,1.552,6.686,2.193c2.362,0.608,4.657,1.114,6.917,1.451l3.04,0.473l3.913,26.057h6.686l3.913-26.057 l3.004-0.473c2.26-0.337,4.555-0.843,6.886-1.451c2.33-0.642,4.59-1.351,6.717-2.193l2.835-1.08l16.436,20.622l5.772-3.342 l-9.654-24.57l2.362-1.891c1.892-1.52,3.646-3.105,5.268-4.725c1.72-1.756,3.306-3.511,4.724-5.266l1.892-2.363l24.57,9.653 l3.341-5.771l-20.622-16.438l1.081-2.836c0.843-2.125,1.552-4.354,2.193-6.716c0.607-2.329,1.112-4.624,1.484-6.886l0.439-3.037 l26.055-3.915v-6.683l-26.055-3.916l-0.439-3.004c-0.372-2.261-0.877-4.59-1.484-6.918c-0.642-2.329-1.351-4.591-2.193-6.717 l-1.081-2.836l20.622-16.402l-3.341-5.772l-24.539,9.62l-1.923-2.363c-1.484-1.822-3.07-3.577-4.724-5.23 c-1.724-1.722-3.478-3.309-5.232-4.727l-2.362-1.924l9.619-24.536l-5.772-3.343l-16.403,20.623l-2.836-1.113 c-2.127-0.811-4.387-1.52-6.749-2.16c-2.331-0.643-4.625-1.113-6.886-1.486l-3.004-0.438l-3.913-26.089h-6.686l-3.913,26.089 l-3.04,0.438c-2.26,0.373-4.59,0.879-6.886,1.486c-2.327,0.607-4.59,1.35-6.717,2.16l-2.833,1.113l-16.438-20.623l-5.77,3.343 l9.651,24.536l-2.362,1.924c-1.821,1.451-3.58,3.038-5.232,4.691c-1.688,1.723-3.274,3.477-4.759,5.3l-1.888,2.362l-24.574-9.687 l-3.341,5.806l20.622,16.402l-1.077,2.836c-0.846,2.126-1.555,4.388-2.197,6.75c-0.607,2.295-1.112,4.624-1.449,6.885 l-0.474,3.004l-26.055,3.916V118.074z" style="fill-rule:evenodd;clip-rule:evenodd;"/> </g> </g> <g id="Layer_1"/> </g>
</svg>